<?xml version="1.0" encoding="utf-8"?>
<!-- Generator: Adobe Illustrator 17.1.0, SVG Export Plug-In . SVG Version: 6.00 Build 0)  -->
<!DOCTYPE svg PUBLIC "-//W3C//DTD SVG 1.1//EN" "http://www.w3.org/Graphics/SVG/1.1/DTD/svg11.dtd">
<svg version="1.1" id="Layer_1" xmlns="http://www.w3.org/2000/svg" xmlns:xlink="http://www.w3.org/1999/xlink" x="0px" y="0px"
	 viewBox="-21.5 193 610 149.5" enable-background="new -21.5 193 610 149.5" xml:space="preserve">
<g>
	<path fill="#FFFFFF" d="M148.1,255.6c0,4.8,1,6.9,2.5,8.2c1.7,1.6,3.1,1.9,5,1.9c2.1,0,4.1-0.9,5.2-2.4c1.6-1.9,2-4.7,2-8.1V251
		c0-5.2,0-6.1-0.1-7.2c0-1.3-0.3-1.8-1.4-2c-0.3-0.1-0.8-0.1-1.1-0.1c-0.1,0-0.3-0.1-0.3-0.2c0-0.2,0.2-0.3,0.5-0.3
		c1.5,0,3.3,0.1,3.5,0.1s1.8-0.1,2.8-0.1c0.4,0,0.5,0.1,0.5,0.3c0,0.1-0.1,0.2-0.3,0.2c-0.2,0-0.4,0-0.8,0.1
		c-0.9,0.2-1.1,0.7-1.3,1.9c-0.1,1-0.1,2-0.1,7.2v3.5c0,3.6-0.4,7.6-3,10c-2.4,2.1-4.9,2.5-6.9,2.5c-1.1,0-4.5-0.1-6.9-2.4
		c-1.7-1.6-2.9-3.9-2.9-8.8v-4.9c0-5.2,0-6.1-0.1-7.2c0.1-1.1-0.2-1.7-1.3-1.9c-0.3-0.1-0.8-0.1-1.1-0.1c-0.1,0-0.3-0.1-0.3-0.2
		c0-0.2,0.2-0.3,0.5-0.3c1.5,0,3.5,0.1,3.9,0.1s2.3-0.1,3.3-0.1c0.4,0,0.5,0.1,0.5,0.3c0,0.1-0.1,0.2-0.3,0.2s-0.4,0-0.8,0.1
		c-0.8,0.1-1.1,0.7-1.1,1.9c-0.1,1-0.1,2-0.1,7.2V255.6z M175.1,253.2c0-4.4,0-5.2-0.1-6.1s-0.3-1.4-1.4-1.6c-0.2,0-0.5-0.1-0.8-0.1
		c-0.2,0-0.4-0.1-0.4-0.2c0-0.1,0.1-0.2,0.4-0.2c1.5,0,3.4,0.1,3.5,0.1c0.3,0,2.6-0.1,3.5-0.1c1.9,0,3.9,0.2,5.4,1.3
		c0.6,0.4,2,1.8,2,4.1c0,1.9-0.9,4.2-3.5,6.3c2.4,3,4.5,5.4,6.1,7.2c1.6,1.7,2.6,1.9,3.5,2.1c0.2,0,0.9,0.1,1,0.1
		c0.3,0,0.4,0.1,0.4,0.2c0,0.2-0.1,0.2-0.6,0.2H192c-1.6,0-2.3-0.1-3-0.4c-1.4-0.6-2.4-2.1-4.2-4.4c-1.3-1.6-2.6-3.4-3.2-4.1
		c-0.1-0.1-0.2-0.2-0.4-0.2h-3.4c-0.1,0-0.2,0-0.2,0.2v0.4c0,2.7,0,5.1,0.2,6.3c0.1,0.8,0.2,1.5,1.3,1.6c0.3,0,0.7,0.1,0.9,0.1
		c0.3,0,0.4,0.1,0.4,0.2c0,0.2-0.1,0.3-0.4,0.3c-1.8,0-3.6-0.1-3.8-0.1c-0.5,0-2,0.1-2.9,0.1c-0.3,0-0.4-0.1-0.4-0.3
		c0-0.1,0.2-0.2,0.4-0.2s0.4,0,0.7-0.1c0.5-0.1,0.7-0.4,0.8-1.3c0.2-1.3,0.1-4,0.1-6.5v-4.8L175.1,253.2z M177.6,255.6
		c0,0.2,0,0.3,0.2,0.4c0.4,0.2,1.8,0.4,2.9,0.4c0.7,0,1.6,0,2.2-0.5c1-0.6,1.7-2.1,1.7-4.3c0-3.6-2-5.6-4.9-5.6
		c-0.8,0-1.6,0.1-2,0.2c-0.1,0-0.2,0.1-0.2,0.3v9.1H177.6z M199,253.2c0-4.4,0-5.2-0.1-6.1s-0.3-1.4-1.3-1.6c-0.3,0-0.7-0.1-0.8-0.1
		c-0.3,0-0.4-0.1-0.4-0.2c0-0.2,0.2-0.2,0.5-0.2c1.4,0,3.4,0.1,3.4,0.1c0.8,0,1.9-0.1,3.2-0.1c5,0,6,2.8,6,4.2
		c0,2.5-1.4,4.1-2.8,5.1c2.2,0.6,5.1,2.7,5.1,5.9c0,3.1-2.5,6.3-7.6,6.3c-0.5,0-1.3-0.1-2.1-0.1c-0.9-0.1-1.8-0.1-1.9-0.1
		c-1,0-1.9,0.1-3,0.1c-0.3,0-0.4-0.1-0.4-0.2c0-0.1,0-0.3,0.4-0.3c0.2,0,0.3,0,0.6-0.1c0.5-0.1,0.7-0.8,0.8-1.6
		c0.2-1.3,0.2-3.5,0.2-6.1C199,258,199,253.2,199,253.2z M201.6,253.8c0,0.2,0.1,0.3,0.2,0.3c0.2,0,0.5,0.1,1.7,0.1
		c1.7,0,2.2-0.1,2.8-0.8c0.5-0.6,0.8-1.6,0.8-2.7c0-2.3-1-4.9-3.9-4.9c-0.3,0-0.9,0.1-1.3,0.2s-0.4,0.1-0.4,0.3
		C201.6,246.3,201.6,253.8,201.6,253.8z M201.6,256.7v6c0.1,1.5,0.1,1.9,1,2.3c0.8,0.4,2.1,0.4,2.5,0.4c1.5,0,4-0.7,4-3.8
		c0-1.7-0.6-4.3-2.9-5.8c-1-0.6-1.6-0.6-2.3-0.7c-0.5-0.1-1.8-0.1-2.2,0c-0.1,0-0.2,0-0.2,0.2v1.4H201.6z M222.6,258.3
		c-0.2,0-0.3,0.1-0.3,0.3l-1.5,4.2c-0.3,0.9-0.5,1.9-0.5,2.4c0,0.6,0.4,0.8,1.1,0.8h0.2c0.3,0,0.4,0.1,0.4,0.2
		c0,0.2-0.3,0.2-0.5,0.2c-0.7,0-2.3-0.1-2.6-0.1s-1.8,0.1-3.2,0.1c-0.4,0-0.5-0.1-0.5-0.2c0-0.1,0.1-0.2,0.4-0.2h0.6
		c1.5-0.1,2-1.3,2.6-2.6l6.6-17.7c0.4-0.9,0.4-1.1,0.7-1.1c0.2,0,0.3,0.1,0.6,1c0.5,1.1,5,12.8,6.8,17c1.1,2.6,2.1,3,2.5,3.2
		s0.9,0.2,1.1,0.2s0.4,0.1,0.4,0.2c0,0.1-0.1,0.2-0.5,0.2c-0.3,0-2.8,0-5.1-0.1c-0.6,0-0.8-0.1-0.8-0.2c0-0.1,0.1-0.2,0.2-0.2
		c0.1-0.1,0.3-0.2,0.1-0.7l-2.6-6.7c-0.1-0.1-0.1-0.2-0.3-0.2H222.6L222.6,258.3z M228.4,257.2c0.1,0,0.1-0.1,0.1-0.2l-2.6-7.4
		c-0.2-0.4-0.2-0.4-0.4,0l-2.5,7.4c-0.1,0.1,0,0.2,0.1,0.2C223,257.2,228.4,257.2,228.4,257.2z M240.9,245.9c0-1,0.1-1.4,0.4-1.4
		c0.2,0,0.8,0.6,1,0.9c0.3,0.3,4.9,5.1,9.6,9.8c2.6,2.5,5.9,5.9,6.8,6.8l-0.4-13.9c0-1.8-0.2-2.4-1.1-2.6c-0.5-0.1-1-0.1-1.3-0.1
		c-0.3,0-0.4-0.1-0.4-0.3c0-0.2,0.3-0.2,0.6-0.2c1.5,0,2.8,0.1,3.1,0.1c0.3,0,1.4-0.1,2.7-0.1c0.4,0,0.4,0,0.4,0.2
		c0,0.1-0.1,0.2-0.3,0.3c-0.2,0-0.4,0-0.8,0.1c-0.7,0.2-1,0.5-1,2.5l-0.1,16.8c0,1.7-0.1,1.9-0.3,1.9c-0.2,0-0.5-0.2-2.2-1.8
		c-0.1-0.1-4.8-4.7-7.7-7.5c-3.4-3.6-6.8-7.1-7.6-7.9l0.4,13c0.1,2.3,0.3,3.1,1.1,3.3c0.5,0.1,1.1,0.1,1.4,0.1
		c0.2,0,0.4,0.1,0.4,0.2c0,0.2-0.2,0.2-0.5,0.2c-1.8,0-3-0.1-3.2-0.1c-0.2,0-1.5,0.1-2.9,0.1c-0.3,0-0.5,0-0.5-0.2
		c0-0.1,0.1-0.2,0.4-0.2c0.2,0,0.6,0,1-0.1c0.7-0.2,0.9-1.1,0.9-3.5C240.9,246.3,240.9,251.6,240.9,245.9L240.9,245.9z M301.8,251.8
		c0.1,0,0.2,0,0.2-0.2v-0.6c0-5.2,0-6.1-0.1-7.2c-0.1-1.1-0.3-1.7-1.5-1.9c-0.3-0.1-0.8-0.1-1.1-0.1c-0.1,0-0.3-0.1-0.3-0.2
		c0-0.2,0.2-0.3,0.5-0.3c1.5,0,3.6,0.1,3.8,0.1c0.2,0,2.3-0.1,3.2-0.1c0.4,0,0.5,0.1,0.5,0.3c0,0.1-0.1,0.2-0.3,0.2s-0.4,0-0.8,0.1
		c-0.9,0.2-1.1,0.7-1.3,1.9c-0.1,1-0.1,2-0.1,7.2v5.8c0,3.2,0,5.8,0.2,7.2c0.1,0.9,0.3,1.7,1.3,1.9c0.4,0.1,1.3,0.1,1.5,0.1
		c0.2,0,0.3,0.1,0.3,0.2c0,0.2-0.2,0.3-0.5,0.3c-1.9,0-4-0.1-4.1-0.1c-0.2,0-2.3,0.1-3.2,0.1c-0.4,0-0.5-0.1-0.5-0.3
		c0-0.1,0.1-0.2,0.3-0.2c0.3,0,0.7-0.1,1-0.1c0.6-0.1,0.8-0.8,0.9-1.9c0.2-1.4,0.2-4.1,0.2-7.2v-3.5c0-0.1-0.1-0.2-0.2-0.2h-14.2
		c-0.1,0-0.2,0-0.2,0.2v3.5c0,3.2,0,5.8,0.2,7.2c0.1,0.9,0.3,1.7,1.3,1.9c0.4,0.1,1.3,0.1,1.5,0.1s0.3,0.1,0.3,0.2
		c0,0.2-0.2,0.3-0.5,0.3c-1.9,0-4-0.1-4.1-0.1c-0.2,0-2.3,0.1-3.2,0.1c-0.4,0-0.5-0.1-0.5-0.3c0-0.1,0.1-0.2,0.3-0.2
		c0.3,0,0.7-0.1,1-0.1c0.6-0.1,0.8-0.8,0.9-1.9c0.2-1.4,0.2-4.1,0.2-7.2v-5.8c0-5.2,0-6.1-0.1-7.2c-0.1-1.1-0.3-1.7-1.5-1.9
		c-0.3-0.1-0.8-0.1-1.1-0.1c-0.1,0-0.3-0.1-0.3-0.2c0-0.2,0.2-0.3,0.5-0.3c1.5,0,3.6,0.1,3.8,0.1c0.2,0,2.3-0.1,3.2-0.1
		c0.4,0,0.5,0.1,0.5,0.3c0,0.1-0.1,0.2-0.3,0.2s-0.4,0-0.8,0.1c-0.9,0.2-1.1,0.7-1.3,1.9c-0.1,1-0.1,2-0.1,7.2v0.7
		c0,0.2,0.1,0.2,0.2,0.2h14.4L301.8,251.8z M316.2,253.2c0-4.4,0-5.2-0.1-6c-0.1-0.9-0.3-1.4-1.3-1.6c-0.2,0-0.5-0.1-0.8-0.1
		c-0.2,0-0.4-0.1-0.4-0.2c0-0.2,0.2-0.3,0.5-0.3c0.6,0,1.6,0.1,3.4,0.1h6.8c0.6,0,1-0.1,1.3-0.2c0.2-0.1,0.2-0.1,0.4-0.1
		c0.1,0,0.1,0.1,0.1,0.2c0,0.2-0.2,0.6-0.3,1.5c0,0.5-0.1,1.1-0.1,1.8c0,0.3-0.1,0.5-0.2,0.5s-0.2-0.1-0.2-0.3c0-0.5-0.1-0.8-0.2-1
		c-0.2-0.6-0.5-0.9-2.2-1c-0.4,0-3.8-0.1-3.8-0.1c-0.1,0-0.2,0.1-0.2,0.3v7.6c0,0.2,0,0.3,0.2,0.3c0.4,0,3.8,0,4.5-0.1
		c0.7,0,1.3-0.1,1.6-0.5c0.1-0.2,0.2-0.3,0.4-0.3c0.1,0,0.1,0,0.1,0.2s-0.1,0.8-0.2,1.8c-0.1,0.9-0.1,1.6-0.1,2.1
		c0,0.3-0.1,0.4-0.2,0.4c-0.2,0-0.2-0.2-0.2-0.4s0-0.5-0.1-0.8c-0.1-0.4-0.3-0.9-1.6-1c-0.7-0.1-3.4-0.1-4-0.1
		c-0.2,0-0.2,0.1-0.2,0.2v7c0.1,1.3,0.2,1.9,0.9,2.2c0.5,0.2,1.3,0.3,2.4,0.3c0.6,0,1.7,0,2.5-0.2c1-0.3,1.3-0.9,1.5-2.2
		c0.1-0.3,0.2-0.4,0.3-0.4c0.2,0,0.2,0.3,0.2,0.5c0,0.2-0.3,2.3-0.4,2.9c-0.1,0.6-0.4,0.7-1.5,0.7c-2.2,0-3.1-0.1-4.3-0.1
		s-2.7-0.1-4-0.1c-0.7,0-1.4,0.1-2.2,0.1c-0.3,0-0.4-0.1-0.4-0.2c0-0.1,0.1-0.2,0.3-0.2c0.2,0,0.4,0,0.6-0.1c0.6-0.1,1-0.5,1-2.6
		c0-1.1,0.1-2.5,0.1-5v-5.2L316.2,253.2z M338.1,258.3c-0.2,0-0.3,0.1-0.3,0.3l-1.5,4.2c-0.3,0.9-0.5,1.9-0.5,2.4
		c0,0.6,0.4,0.8,1.1,0.8h0.2c0.3,0,0.4,0.1,0.4,0.2c0,0.2-0.3,0.2-0.5,0.2c-0.7,0-2.3-0.1-2.6-0.1c-0.3,0-1.8,0.1-3.2,0.1
		c-0.4,0-0.5-0.1-0.5-0.2c0-0.1,0.1-0.2,0.4-0.2h0.6c1.5-0.1,2-1.3,2.6-2.6l6.6-17.7c0.4-0.9,0.4-1.1,0.7-1.1c0.2,0,0.3,0.1,0.6,1
		c0.4,1.1,5,12.7,6.8,16.9c1.1,2.6,2.1,3,2.5,3.2c0.4,0.2,0.9,0.2,1.1,0.2c0.2,0,0.4,0.1,0.4,0.2c0,0.1-0.1,0.2-0.5,0.2
		c-0.3,0-2.8,0-5.1-0.1c-0.6,0-0.8-0.1-0.8-0.2c0-0.1,0.1-0.2,0.2-0.2c0.1-0.1,0.3-0.2,0.1-0.7l-2.6-6.7c-0.1-0.1-0.1-0.2-0.3-0.2
		h-5.9V258.3z M343.8,257.2c0.1,0,0.1-0.1,0.1-0.2l-2.6-7.4c-0.2-0.4-0.2-0.4-0.4,0l-2.5,7.4c-0.1,0.1,0,0.2,0.1,0.2H343.8
		L343.8,257.2z M361.6,258.3c0,3.9,0.1,5.7,0.7,6.3c0.5,0.4,1.3,0.6,3.5,0.6c1.5,0,2.8,0,3.5-0.9c0.3-0.5,0.5-1.1,0.6-1.7
		c0-0.3,0.1-0.4,0.3-0.4c0.1,0,0.2,0.1,0.2,0.4c0,0.3-0.2,2.2-0.4,3c-0.2,0.6-0.2,0.8-1.8,0.8c-2.3,0-4.8-0.2-8.1-0.2
		c-1.1,0-1.8,0.1-2.9,0.1c-0.3,0-0.5-0.1-0.5-0.3c0-0.1,0.1-0.2,0.4-0.2s0.5,0,0.8-0.1c0.5-0.1,0.7-0.7,0.8-1.6
		c0.2-1.3,0.1-3.5,0.1-6.1v-5c0-4.4,0-5.1-0.1-6c-0.1-0.9-0.2-1.6-1.4-1.7h-0.8c-0.2,0-0.4-0.1-0.4-0.2c0-0.2,0.2-0.2,0.5-0.2
		c1.4,0,3.4,0.1,3.4,0.1c0.4,0,2.5-0.1,3.4-0.1c0.3,0,0.4,0.1,0.4,0.2c0,0.1-0.2,0.2-0.4,0.2s-0.5,0-0.9,0.1
		c-0.9,0.1-1.1,0.6-1.3,1.7c-0.1,0.9,0,1.7,0,6v5.2H361.6z M382.9,258.2c0,2.6,0,4.9,0.2,6.1c0.1,0.8,0.2,1.3,1,1.5
		c0.4,0.1,1,0.1,1.3,0.1c0.2,0,0.4,0.1,0.4,0.2c0,0.2-0.1,0.3-0.4,0.3c-1.7,0-3.6-0.1-3.8-0.1s-2.1,0.1-2.9,0.1
		c-0.4,0-0.5-0.1-0.5-0.2c0-0.1,0.1-0.2,0.4-0.2h0.7c0.6-0.1,0.7-0.5,0.8-1.7c0.1-1.3,0.1-3.6,0.1-6.1v-11.9h-4.2
		c-2.1,0-2.6,0.4-3,1c-0.3,0.4-0.4,0.8-0.5,1c-0.1,0.2-0.2,0.3-0.3,0.3s-0.2-0.1-0.2-0.3s0.4-2.4,0.6-3.3c0.1-0.4,0.2-0.5,0.3-0.5
		c0.2,0,0.8,0.3,1.5,0.4c1.1,0.1,2.1,0.2,2.1,0.2h10.9c0.9,0,2-0.1,2.4-0.2s0.5-0.1,0.6-0.1s0.2,0.2,0.2,0.3c0,0.9-0.1,3.1-0.1,3.4
		c0,0.3-0.1,0.4-0.2,0.4c-0.2,0-0.2-0.1-0.2-0.4v-0.4c-0.1-1.4-0.5-1.7-4-1.7H383v11.7H382.9z M412.8,254c0.1,0,0.2,0,0.2-0.2v-0.6
		c0-4.4,0-5.2-0.1-6c-0.1-0.9-0.2-1.4-1.3-1.6c-0.2,0-0.5-0.1-0.8-0.1c-0.2,0-0.4-0.1-0.4-0.2c0-0.2,0.2-0.2,0.4-0.2
		c1.4,0,3.3,0.1,3.5,0.1s2-0.1,3-0.1c0.3,0,0.5,0,0.5,0.2c0,0.1-0.1,0.2-0.4,0.2c-0.2,0-0.4,0-0.6,0.1c-0.9,0.1-1,0.6-1.1,1.6v11.1
		c0,2.7,0,4.9,0.1,6.1c0.1,0.8,0.3,1.5,1.1,1.6c0.4,0.1,0.8,0.1,1.1,0.1c0.3,0,0.4,0.1,0.4,0.2c0,0.2-0.2,0.2-0.5,0.2
		c-1.7,0-3.6-0.1-3.8-0.1c-0.1,0-2.1,0.1-2.9,0.1c-0.3,0-0.5-0.1-0.5-0.3c0-0.1,0.1-0.2,0.4-0.2c0.3,0,0.5,0,0.7-0.1
		c0.5-0.1,0.7-0.8,0.8-1.6c0.2-1.3,0.2-3.3,0.2-6v-2.9c0-0.1-0.1-0.2-0.2-0.2h-12.1c-0.1,0-0.2,0-0.2,0.2v2.9c0,2.7,0,4.9,0.2,6
		c0.1,0.7,0.3,1.4,1.1,1.5c0.4,0.1,0.9,0.1,1.3,0.1c0.2,0,0.4,0.1,0.4,0.2c0,0.1-0.1,0.2-0.4,0.2c-1.7,0-3.6-0.1-3.9-0.1
		c-0.1,0-2.1,0.1-3,0.1c-0.3,0-0.5-0.1-0.5-0.2c0-0.1,0.1-0.2,0.4-0.2c0.3,0,0.5,0,0.8-0.1c0.6-0.1,0.7-0.7,0.8-1.5
		c0.2-1.3,0.2-3.4,0.2-6.1v-4.9c0-4.4,0-5.3-0.1-6.1s-0.3-1.5-1.3-1.6c-0.3,0-0.6-0.1-0.9-0.1c-0.2,0-0.4-0.1-0.4-0.2
		c0-0.2,0.2-0.2,0.5-0.2c1.5,0,3,0.1,3.4,0.1c0.1,0,2.1-0.1,3-0.1c0.3,0,0.5,0.1,0.5,0.2c0,0.1-0.1,0.2-0.3,0.2
		c-0.2,0-0.3,0-0.6,0.1c-0.8,0.1-1,0.7-1.1,1.7v6.7c0,0.2,0.1,0.2,0.2,0.2h11.9V254z M440.9,250.9c0-5.2,0-6.1-0.1-7.2
		c-0.1-1.1-0.3-1.7-1.5-1.9c-0.3-0.1-0.8-0.1-1.1-0.1c-0.1,0-0.3-0.1-0.3-0.2c0-0.2,0.2-0.3,0.5-0.3c1.5,0,3.5,0.1,3.8,0.1
		c0.7,0,2.7-0.1,4.2-0.1c4.2,0,5.6,1.4,6.3,1.9c0.7,0.7,1.7,2.2,1.7,4.4c0,4.4-3.4,7.5-8.2,7.5h-0.7c-0.2,0-0.4-0.1-0.4-0.2
		c0-0.3,0.2-0.3,0.9-0.3c3.2,0,5.7-2.2,5.7-5.7c0-0.8-0.1-3-1.9-4.9c-1.8-1.8-3.8-1.7-4.6-1.7c-0.5,0-1.1,0.1-1.5,0.2
		c-0.2,0.1-0.3,0.3-0.3,0.6v13.8c0,3.2,0,5.8,0.2,7.2c0.1,0.9,0.3,1.7,1.3,1.9c0.4,0.1,1.3,0.1,1.5,0.1s0.3,0.1,0.3,0.2
		c0,0.2-0.2,0.3-0.5,0.3c-1.9,0-4-0.1-4.1-0.1c-0.1,0-2.2,0.1-3.2,0.1c-0.4,0-0.5-0.1-0.5-0.3c0-0.1,0.1-0.2,0.3-0.2
		c0.3,0,0.7-0.1,1-0.1c0.6-0.1,0.8-0.8,0.9-1.9c0.2-1.4,0.2-4.1,0.2-7.2v-5.8H440.9z M462.6,253.2c0-4.4,0-5.2-0.1-6.1
		c-0.1-0.9-0.3-1.4-1.4-1.6c-0.2,0-0.5-0.1-0.8-0.1c-0.2,0-0.4-0.1-0.4-0.2c0-0.1,0.1-0.2,0.4-0.2c1.5,0,3.4,0.1,3.5,0.1
		c0.3,0,2.6-0.1,3.5-0.1c1.9,0,3.9,0.2,5.4,1.3c0.6,0.4,2,1.8,2,4.1c0,1.9-0.9,4.2-3.5,6.3c2.4,3,4.5,5.4,6.1,7.2
		c1.6,1.7,2.6,1.9,3.5,2.1c0.2,0,0.9,0.1,1,0.1c0.3,0,0.4,0.1,0.4,0.2c0,0.2-0.1,0.2-0.6,0.2h-2.3c-1.6,0-2.3-0.1-3-0.4
		c-1.4-0.6-2.4-2.1-4.2-4.4c-1.3-1.6-2.6-3.4-3.2-4.1c-0.1-0.1-0.2-0.2-0.4-0.2h-3.4c-0.1,0-0.2,0-0.2,0.2v0.4c0,2.7,0,5.1,0.2,6.3
		c0.1,0.8,0.2,1.5,1.3,1.6c0.3,0,0.7,0.1,0.9,0.1c0.3,0,0.4,0.1,0.4,0.2c0,0.2-0.1,0.3-0.4,0.3c-1.8,0-3.6-0.1-3.8-0.1
		c-0.5,0-2,0.1-2.9,0.1c-0.3,0-0.4-0.1-0.4-0.3c0-0.1,0.2-0.2,0.4-0.2c0.2,0,0.4,0,0.7-0.1c0.5-0.1,0.7-0.4,0.8-1.3
		c0.2-1.3,0.1-4,0.1-6.5v-4.8L462.6,253.2z M465.2,255.6c0,0.2,0,0.3,0.2,0.4c0.4,0.2,1.8,0.4,2.9,0.4c0.7,0,1.6,0,2.2-0.5
		c1-0.6,1.7-2.1,1.7-4.3c0-3.6-2-5.6-4.9-5.6c-0.8,0-1.6,0.1-2,0.2c-0.1,0-0.2,0.1-0.2,0.3v9.1H465.2z M482.6,255.7
		c0-4.5,3.4-11,11.7-11c6.6,0,11.7,4,11.7,10.6c0,6.4-4.7,11.6-11.8,11.6C485.9,266.8,482.6,260.7,482.6,255.7L482.6,255.7z
		 M502.8,256c0-6.7-4.2-10.4-8.8-10.4s-8.3,2.9-8.3,9.2c0,6.6,3.6,10.8,9.3,10.8C497.2,265.7,502.8,264.6,502.8,256z M516.1,259.6
		c0,4.8,0,6.7-0.9,8.8c-0.6,1.5-2,2.8-4.6,4.5c-0.4,0.2-0.8,0.5-1.1,0.7h-0.2c-0.1,0-0.2,0-0.2-0.2s0.2-0.3,0.4-0.4
		c0.3-0.2,0.7-0.5,0.9-0.7c2-1.9,2.9-3.3,2.9-10.9v-8.1c0-4.4,0-5.2-0.1-6c-0.1-0.9-0.4-1.4-1.3-1.6c-0.2,0-0.7-0.1-1-0.1
		c-0.1,0-0.2-0.1-0.2-0.2c0-0.2,0.2-0.3,0.5-0.3c1.4,0,3.3,0.1,3.4,0.1s2.1-0.1,3-0.1c0.3,0,0.4,0.1,0.4,0.3c0,0.1-0.1,0.2-0.2,0.2
		c-0.2,0-0.4,0-0.7,0.1c-0.7,0.2-1,0.6-1.1,1.7c-0.1,0.9-0.1,1.7-0.1,6v6.4H516.1z M526.5,253.2c0-4.4,0-5.2-0.1-6
		c-0.1-0.9-0.3-1.4-1.3-1.6c-0.2,0-0.5-0.1-0.8-0.1c-0.2,0-0.4-0.1-0.4-0.2c0-0.2,0.2-0.3,0.5-0.3c0.6,0,1.6,0.1,3.4,0.1h6.8
		c0.6,0,1-0.1,1.3-0.2s0.2-0.1,0.4-0.1c0.1,0,0.1,0.1,0.1,0.2c0,0.2-0.2,0.6-0.3,1.5c0,0.5-0.1,1.1-0.1,1.8c0,0.3-0.1,0.5-0.2,0.5
		c-0.1,0-0.2-0.1-0.2-0.4c0-0.5-0.1-0.8-0.2-1c-0.2-0.6-0.5-0.9-2.2-1c-0.4,0-3.8-0.1-3.8-0.1c-0.1,0-0.2,0.1-0.2,0.3v7.6
		c0,0.2,0,0.3,0.2,0.3c0.4,0,3.8,0,4.5-0.1c0.7,0,1.3-0.1,1.6-0.5c0.1-0.2,0.2-0.3,0.4-0.3c0.1,0,0.1,0,0.1,0.2s-0.1,0.8-0.2,1.8
		c-0.1,0.9-0.1,1.6-0.1,2.1c0,0.3-0.1,0.4-0.2,0.4c-0.2,0-0.2-0.2-0.2-0.4c0-0.2,0-0.5-0.1-0.8c-0.1-0.4-0.3-0.9-1.6-1
		c-0.7-0.1-3.4-0.1-4-0.1c-0.2,0-0.2,0.1-0.2,0.2v7.1c0.1,1.3,0.2,1.9,0.9,2.2c0.5,0.2,1.3,0.3,2.4,0.3c0.6,0,1.7,0,2.5-0.2
		c1-0.3,1.3-0.9,1.5-2.2c0.1-0.3,0.2-0.4,0.3-0.4c0.2,0,0.2,0.3,0.2,0.5c0,0.2-0.3,2.3-0.4,2.9c-0.1,0.6-0.4,0.7-1.5,0.7
		c-2.2,0-3.1-0.1-4.3-0.1c-1.1,0-2.7-0.1-4-0.1c-0.7,0-1.4,0.1-2.2,0.1c-0.3,0-0.4-0.1-0.4-0.2s0.1-0.2,0.3-0.2s0.4,0,0.6-0.1
		c0.6-0.1,1-0.5,1-2.6c0-1.1,0.1-2.5,0.1-5v-5.2L526.5,253.2z M545.9,263.7c-2.8-2.5-3.5-5.7-3.5-8.5c0-1.9,0.7-5.2,3.3-7.7
		c1.8-1.8,4.5-2.9,9-2.9c1.6,0,2.8,0.1,4.4,0.4c1,0.2,2.1,0.3,2.9,0.4c0.3,0,0.3,0.2,0.3,0.3c0,0.3-0.1,0.5-0.2,1.7
		c0,0.9,0,2.7-0.1,3c0,0.4-0.1,0.6-0.3,0.6c-0.2,0-0.3-0.2-0.3-0.6c0-0.9-0.4-2.3-1.3-2.9c-1-0.8-3.3-1.7-5.9-1.7
		c-3.8,0-5.4,1-6.4,2c-2.2,2-2.7,4.4-2.7,7.3c0,5.5,4.5,10.4,10.4,10.4c2.3,0,4-0.2,5.1-1.4c0.6-0.6,0.9-1.5,1.1-2.4
		c0.1-0.3,0.2-0.5,0.4-0.5s0.2,0.2,0.2,0.4c0,0.3-0.4,2.9-0.6,3.8c-0.2,0.5-0.3,0.6-0.7,0.8c-1.1,0.5-3.4,0.6-5.3,0.6
		C551.2,266.8,548.2,265.8,545.9,263.7L545.9,263.7z M577.6,258.2c0,2.6,0,4.9,0.2,6.1c0.1,0.8,0.2,1.3,1,1.5c0.4,0.1,1,0.1,1.3,0.1
		c0.3,0,0.4,0.1,0.4,0.2c0,0.2-0.1,0.3-0.4,0.3c-1.7,0-3.6-0.1-3.8-0.1s-2.1,0.1-2.9,0.1c-0.4,0-0.5-0.1-0.5-0.2
		c0-0.1,0.1-0.2,0.4-0.2h0.7c0.6-0.1,0.7-0.5,0.8-1.7c0.1-1.3,0.1-3.6,0.1-6.1v-11.9h-4.2c-2.1,0-2.6,0.4-3,1
		c-0.3,0.4-0.4,0.8-0.5,1c-0.1,0.2-0.2,0.3-0.3,0.3s-0.2-0.1-0.2-0.3s0.4-2.4,0.6-3.3c0.1-0.4,0.2-0.5,0.3-0.5
		c0.2,0,0.8,0.3,1.5,0.4c1.1,0.1,2.1,0.2,2.1,0.2h10.9c0.9,0,2-0.1,2.4-0.2s0.5-0.1,0.6-0.1c0.1,0,0.2,0.2,0.2,0.3
		c0,0.9-0.1,3.1-0.1,3.4c0,0.3-0.1,0.4-0.2,0.4c-0.2,0-0.2-0.1-0.2-0.4v-0.4c-0.1-1.4-0.5-1.7-4-1.7h-3.2v11.7H577.6z"/>
</g>
<g>
	<path fill="#989898" d="M147.2,293.3c-0.2-0.1-0.2-0.2-0.2-0.6c0-0.8,0.1-1.5,0.1-1.7s0-0.2,0.1-0.2s0.1,0,0.1,0.2v0.6
		c0.2,1.1,1.3,1.6,2.3,1.6c1.5,0,2.2-1,2.2-2.1c0-1-0.4-1.7-1.8-2.8l-0.7-0.6c-1.7-1.4-2.1-2.3-2.1-3.4c0-1.7,1.3-2.8,3.2-2.8
		c0.6,0,1,0.1,1.5,0.1c0.3,0.1,0.4,0.1,0.5,0.1s0.1,0,0.1,0.1c0,0.1-0.1,0.6-0.1,1.7c0,0.2,0,0.3-0.1,0.3s-0.1-0.1-0.1-0.2
		c0-0.2-0.1-0.6-0.2-0.8c-0.1-0.2-0.3-0.7-1.8-0.7c-1,0-1.9,0.6-1.9,1.8c0,0.9,0.4,1.5,1.9,2.6l0.4,0.3c1.9,1.5,2.3,2.4,2.3,3.6
		c0,0.6-0.2,1.9-1.4,2.6c-0.6,0.5-1.6,0.6-2.4,0.6C148.5,293.8,147.8,293.7,147.2,293.3L147.2,293.3z M158.9,286.3v-3.3
		c0-0.5-0.1-0.8-0.6-0.9h-0.4c-0.1,0-0.2,0-0.2-0.1s0.1-0.1,0.2-0.1h5.3c0.3,0,0.6,0,0.7-0.1c0.1-0.1,0.1-0.1,0.2-0.1
		s0.1,0.1,0.1,0.1c0,0.1-0.1,0.3-0.1,0.7c0,0.2,0,0.5-0.1,0.9c0,0.2-0.1,0.3-0.1,0.3c-0.1,0-0.1-0.1-0.1-0.2c0-0.2,0-0.4-0.1-0.5
		c-0.1-0.3-0.4-0.5-1.1-0.6h-2.2c-0.1,0-0.1,0-0.1,0.1v4.3c0,0.1,0,0.2,0.1,0.2h2.5c0.4,0,0.6-0.1,0.8-0.3c0.1-0.1,0.1-0.2,0.2-0.2
		c0,0,0.1,0,0.1,0.1s-0.1,0.3-0.1,0.8c0,0.5,0,0.8-0.1,1c0,0.2,0,0.2-0.1,0.2s-0.1-0.1-0.1-0.2c0-0.1,0-0.3-0.1-0.4
		c-0.1-0.2-0.2-0.4-0.8-0.5c-0.4,0-2-0.1-2.2-0.1c-0.1,0-0.1,0-0.1,0.1v4.1c0,0.6,0.1,0.9,0.5,1.1c0.3,0.1,0.7,0.1,1.3,0.1
		c0.5,0,0.9,0,1.4-0.1c0.5-0.2,0.6-0.5,0.8-1.1c0-0.2,0.1-0.2,0.1-0.2c0.1,0,0.1,0.1,0.1,0.2c0,0.1-0.1,1.1-0.2,1.6
		s-0.2,0.4-0.8,0.4h-4.3c-0.4,0-0.7,0.1-1.1,0c-0.2,0-0.2,0-0.2-0.1c0,0,0.1-0.1,0.2-0.1h0.3c0.3-0.1,0.5-0.3,0.5-1.5
		C158.9,291.8,158.9,286.3,158.9,286.3z M170.1,286.3v-3.3c0-0.5-0.1-0.8-0.6-0.9H169c-0.1,0-0.1,0-0.1-0.1s0.1-0.1,0.2-0.1h3.6
		c0.9,0,2.1,0.1,2.8,0.7c0.4,0.3,1,1,1,2.1c0,1.1-0.5,2.3-1.9,3.6c1.3,1.7,2.3,3,3.2,4c0.8,0.9,1.6,1,1.9,1.1h0.6
		c0.1,0,0.1,0,0.1,0.1c0,0.1-0.1,0.1-0.4,0.1H179c-0.8,0-1.3-0.1-1.7-0.3c-0.6-0.3-1.3-1.1-2.1-2.3c-0.6-0.8-1.4-1.9-1.7-2.3
		c-0.1-0.1-0.1-0.1-0.2-0.1h-1.9c-0.1,0-0.1,0-0.1,0.1v0.4c0,1.5,0,2.7,0.1,3.4c0,0.4,0.1,0.8,0.6,0.8c0.2,0,0.5,0.1,0.7,0.1
		c0.1,0,0.1,0,0.1,0.1c0,0.1-0.1,0.1-0.2,0.1h-1.9h-1.5c-0.2,0-0.2,0-0.2-0.1c0,0,0-0.1,0.1-0.1s0.3,0,0.5-0.1
		c0.3-0.1,0.4-0.4,0.4-0.8c0.1-0.6,0.1-1.9,0.1-3.4v-2.8H170.1z M171.4,287.6c0,0.1,0,0.1,0.1,0.2c0.2,0.1,0.9,0.2,1.7,0.2
		c0.4,0,0.8,0,1.1-0.3c0.5-0.4,0.9-1.3,0.9-2.4c0-2-1-3.1-2.7-3.1c-0.5,0-0.9,0-1,0.1c-0.1,0-0.1,0.1-0.1,0.2
		C171.4,282.5,171.4,287.6,171.4,287.6z M181.9,283.1c-0.3-0.8-0.6-1-1.1-1.3c-0.2-0.1-0.5-0.1-0.6-0.1c-0.1,0-0.1,0-0.1-0.1
		c0-0.1,0.1-0.1,0.4-0.1h3.2c0.3,0,0.4,0,0.4,0.1c0,0.1,0,0.1-0.1,0.1c-0.2,0-0.4,0-0.6,0.1c-0.2,0.1-0.2,0.2-0.2,0.3
		c0,0.1,0.1,0.5,0.3,1l3.2,8.3c0.9-2.1,3-7.5,3.3-8.6c0.1-0.2,0.1-0.4,0.1-0.6c0-0.1,0-0.3-0.2-0.3c-0.2-0.1-0.4-0.1-0.6-0.1
		c-0.1,0-0.2,0-0.2-0.1c0-0.1,0.1-0.1,0.3-0.1h2.8c0.2,0,0.3,0,0.3,0.1c0,0.1-0.1,0.1-0.2,0.1c-0.1,0-0.4,0-0.7,0.2
		c-0.2,0.1-0.4,0.4-0.8,1.5c-0.2,0.4-0.9,2.3-1.8,4.3c-0.9,2.3-1.7,4-2,4.7c-0.4,0.9-0.5,1.1-0.6,1.1c-0.2,0-0.3-0.2-0.5-0.9
		C185.8,292.7,181.9,283.1,181.9,283.1z M196.8,286.3v-3.3c0-0.5-0.2-0.8-0.5-0.8c-0.2,0-0.4-0.1-0.5-0.1s-0.1,0-0.1-0.1
		s0.1-0.1,0.2-0.1h3.1c0.2,0,0.2,0,0.2,0.1s-0.1,0.1-0.1,0.1h-0.4c-0.4,0.1-0.5,0.3-0.6,0.9v6c0,1.5,0,2.7,0.1,3.4
		c0,0.4,0.1,0.8,0.6,0.8c0.2,0,0.5,0.1,0.6,0.1c0.1,0,0.2,0,0.2,0.1c0,0.1-0.1,0.1-0.2,0.1h-3.5c-0.2,0-0.2,0-0.2-0.1
		c0,0,0-0.1,0.2-0.1h0.4c0.3-0.1,0.4-0.4,0.5-0.8c0.1-0.6,0.1-1.9,0.1-3.4v-2.8H196.8z M205.2,288.9v-6.7c0-0.6,0-0.8,0.2-0.8
		c0.1,0,0.4,0.3,0.5,0.5c0.2,0.3,2.6,2.8,5,5.3c1.6,1.7,3.2,3.5,3.8,4.1l-0.2-7.9c0-1-0.1-1.4-0.6-1.5c-0.3-0.1-0.5-0.1-0.6-0.1
		c-0.2,0-0.2,0-0.2-0.1c0-0.1,0.1-0.1,0.3-0.1h3c0.2,0,0.3,0,0.3,0.1c0,0.1-0.1,0.1-0.2,0.1s-0.2,0-0.4,0.1
		c-0.4,0.1-0.5,0.3-0.5,1.4v9.2c0,1,0,1.1-0.1,1.1s-0.3-0.2-1.1-1c-0.2-0.1-2.4-2.5-4.1-4.3c-1.8-2-3.5-4-4.1-4.5l0.2,7.5
		c0,1.3,0.2,1.7,0.6,1.8c0.3,0.1,0.6,0.1,0.8,0.1c0.1,0,0.1,0,0.1,0.1c0,0.1-0.1,0.1-0.3,0.1h-3.1c-0.1,0-0.2,0-0.2-0.1
		c0-0.1,0-0.1,0.1-0.1s0.4,0,0.6-0.1c0.4-0.1,0.5-0.5,0.5-2v-2.2H205.2z M231.3,292.2c0,0.7,0,0.7-0.2,0.8c-1,0.5-2.4,0.7-3.3,0.7
		c-1.1,0-3.4-0.1-5.1-1.7c-0.9-0.8-1.9-2.5-1.9-4.5c0-2.5,1.3-4.3,2.6-5.1c1.4-0.8,2.9-0.9,4.2-0.9c0.9,0,2.1,0.2,2.4,0.3
		c0.3,0.1,0.8,0.1,1.3,0.2c0.1,0,0.2,0.1,0.2,0.1c0,0.2-0.1,0.6-0.1,2.2c0,0.2,0,0.3-0.1,0.3c-0.1,0-0.1-0.1-0.1-0.2
		c0-0.2-0.1-0.6-0.3-1c-0.4-0.6-1.7-1.3-3.6-1.3c-0.9,0-2.2,0.1-3.3,1c-0.9,0.7-1.6,2.2-1.6,4c0,2.2,1.1,3.8,1.7,4.4
		c1.3,1.3,2.6,1.7,4.1,1.7c0.5,0,1.4-0.1,1.8-0.3c0.2-0.1,0.3-0.3,0.3-0.5v-2.9c0-1.3-0.1-1.5-0.7-1.6h-0.5c-0.1,0-0.1,0-0.1-0.1
		s0.1-0.1,0.2-0.1h3.3c0.2,0,0.2,0,0.2,0.1s-0.1,0.1-0.1,0.1h-0.4c-0.4,0.1-0.5,0.3-0.6,0.9C231.3,288.9,231.3,292.2,231.3,292.2z
		 M253.9,292.2c0,0.7,0,0.7-0.2,0.8c-1,0.5-2.4,0.7-3.3,0.7c-1.1,0-3.4-0.1-5.1-1.7c-0.9-0.8-1.9-2.5-1.9-4.5c0-2.5,1.3-4.3,2.6-5.1
		c1.4-0.8,2.9-0.9,4.2-0.9c0.9,0,2.1,0.2,2.4,0.3c0.3,0.1,0.8,0.1,1.3,0.2c0.1,0,0.2,0.1,0.2,0.1c0,0.2-0.1,0.6-0.1,2.2
		c0,0.2,0,0.3-0.1,0.3s-0.1-0.1-0.1-0.2c0-0.2-0.1-0.6-0.3-1c-0.4-0.6-1.7-1.3-3.6-1.3c-0.9,0-2.2,0.1-3.3,1c-0.9,0.7-1.6,2.2-1.6,4
		c0,2.2,1.1,3.8,1.7,4.4c1.3,1.3,2.6,1.7,4.1,1.7c0.5,0,1.4-0.1,1.8-0.3c0.2-0.1,0.3-0.3,0.3-0.5v-2.9c0-1.3-0.1-1.5-0.7-1.6h-0.5
		c-0.1,0-0.1,0-0.1-0.1s0.1-0.1,0.2-0.1h3.3c0.2,0,0.2,0,0.2,0.1s-0.1,0.1-0.1,0.1h-0.4c-0.4,0.1-0.5,0.3-0.6,0.9
		C253.9,288.9,253.9,292.2,253.9,292.2z M260.7,286.3v-3.3c0-0.5-0.1-0.8-0.6-0.9h-0.5c-0.1,0-0.1,0-0.1-0.1s0.1-0.1,0.2-0.1h3.6
		c0.9,0,2.1,0.1,2.8,0.7c0.4,0.3,1,1,1,2.1c0,1.1-0.5,2.3-1.9,3.6c1.3,1.7,2.3,3,3.2,4c0.8,0.9,1.6,1,1.9,1.1h0.6
		c0.1,0,0.1,0,0.1,0.1c0,0.1-0.1,0.1-0.4,0.1h-1.1c-0.8,0-1.3-0.1-1.7-0.3c-0.6-0.3-1.3-1.1-2.1-2.3c-0.6-0.8-1.4-1.9-1.7-2.3
		c-0.1-0.1-0.1-0.1-0.2-0.1H262c-0.1,0-0.1,0-0.1,0.1v0.4c0,1.5,0,2.7,0.1,3.4c0,0.4,0.1,0.8,0.6,0.8c0.2,0,0.5,0.1,0.7,0.1
		c0.1,0,0.1,0,0.1,0.1c0,0.1-0.1,0.1-0.2,0.1h-1.9h-1.5c-0.2,0-0.2,0-0.2-0.1c0,0,0-0.1,0.1-0.1c0.1,0,0.3,0,0.5-0.1
		c0.3-0.1,0.4-0.4,0.4-0.8c0.1-0.6,0.1-1.9,0.1-3.4v-2.8H260.7z M261.9,287.6c0,0.1,0,0.1,0.1,0.2c0.2,0.1,0.9,0.2,1.7,0.2
		c0.4,0,0.8,0,1.1-0.3c0.5-0.4,0.9-1.3,0.9-2.4c0-2-1-3.1-2.7-3.1c-0.5,0-0.9,0-1,0.1c-0.1,0-0.1,0.1-0.1,0.2
		C261.9,282.5,261.9,287.6,261.9,287.6z M274.5,286.3v-3.3c0-0.5-0.1-0.8-0.6-0.9h-0.4c-0.1,0-0.2,0-0.2-0.1s0.1-0.1,0.2-0.1h5.3
		c0.3,0,0.6,0,0.7-0.1c0.1-0.1,0.1-0.1,0.2-0.1s0.1,0.1,0.1,0.1c0,0.1-0.1,0.3-0.1,0.7c0,0.2,0,0.5-0.1,0.9c0,0.2-0.1,0.3-0.1,0.3
		c-0.1,0-0.1-0.1-0.1-0.2c0-0.2,0-0.4-0.1-0.5c-0.1-0.3-0.4-0.5-1.1-0.6H276c-0.1,0-0.1,0-0.1,0.1v4.3c0,0.1,0,0.2,0.1,0.2h2.5
		c0.4,0,0.6-0.1,0.8-0.3c0.1-0.1,0.1-0.2,0.2-0.2c0,0,0.1,0,0.1,0.1s-0.1,0.3-0.1,0.8c0,0.5,0,0.8-0.1,1c0,0.2,0,0.2-0.1,0.2
		c-0.1,0-0.1-0.1-0.1-0.2c0-0.1,0-0.3-0.1-0.4c-0.1-0.2-0.2-0.4-0.8-0.5c-0.4,0-2-0.1-2.2-0.1c-0.1,0-0.1,0-0.1,0.1v4.1
		c0,0.6,0.1,0.9,0.5,1.1c0.3,0.1,0.7,0.1,1.3,0.1c0.5,0,0.9,0,1.4-0.1c0.5-0.2,0.6-0.5,0.8-1.1c0-0.2,0.1-0.2,0.1-0.2
		c0.1,0,0.1,0.1,0.1,0.2c0,0.1-0.1,1.1-0.2,1.6c-0.1,0.4-0.2,0.4-0.8,0.4h-4.3c-0.4,0-0.7,0.1-1.1,0c-0.2,0-0.2,0-0.2-0.1
		c0,0,0.1-0.1,0.2-0.1h0.3c0.3-0.1,0.5-0.3,0.5-1.5L274.5,286.3L274.5,286.3z M287,288.9c-0.1,0-0.1,0-0.1,0.1l-0.9,2.8
		c-0.1,0.4-0.2,0.7-0.2,1c0,0.3,0.3,0.4,0.5,0.4h0.1c0.2,0,0.2,0,0.2,0.1s-0.1,0.1-0.3,0.1h-2.9c-0.2,0-0.3,0-0.3-0.1
		s0.1-0.1,0.2-0.1h0.4c0.7-0.1,1-0.7,1.4-1.5l3.5-9.7c0.2-0.5,0.2-0.6,0.3-0.6s0.1,0.1,0.3,0.5c0.2,0.6,2.7,7.1,3.6,9.4
		c0.5,1.4,1,1.7,1.4,1.8c0.2,0.1,0.5,0.1,0.6,0.1c0.1,0,0.2,0,0.2,0.1s-0.1,0.1-0.3,0.1h-2.5c-0.3,0-0.5,0-0.5-0.1s0-0.1,0.1-0.1
		c0.1,0,0.2-0.2,0.1-0.4l-1.5-3.9c0-0.1-0.1-0.1-0.1-0.1H287L287,288.9z M290.3,288.3c0.1,0,0.1,0,0.1-0.1l-1.5-4.2
		c-0.1-0.2-0.1-0.2-0.2,0l-1.4,4.2v0.1H290.3L290.3,288.3z M301.5,289c0,1.5,0,2.7,0.1,3.4c0,0.4,0.1,0.8,0.6,0.8
		c0.2,0,0.5,0.1,0.7,0.1c0.1,0,0.1,0,0.1,0.1c0,0.1-0.1,0.1-0.2,0.1h-3.4c-0.2,0-0.2,0-0.2-0.1c0,0,0-0.1,0.1-0.1
		c0.1,0,0.3,0,0.5-0.1c0.3-0.1,0.4-0.4,0.4-0.8c0.1-0.6,0.1-1.9,0.1-3.4v-6.6h-2.3c-0.9,0-1.4,0.1-1.6,0.5c-0.2,0.3-0.2,0.4-0.3,0.5
		c0,0.1-0.1,0.2-0.1,0.2s-0.1,0-0.1-0.1c0-0.1,0.3-1.5,0.3-1.7c0-0.1,0.1-0.3,0.1-0.3c0.1,0,0.3,0.1,0.7,0.2c0.4,0,1,0.1,1.3,0.1
		h5.8c0.5,0,0.8,0,1.1-0.1c0.2,0,0.4-0.1,0.4-0.1c0.1,0,0.1,0.1,0.1,0.2v1.7c0,0.1,0,0.2-0.1,0.2c-0.1,0-0.1,0-0.1-0.3v-0.2
		c0-0.4-0.4-0.8-1.9-0.8h-2v6.6H301.5z M311.1,286.3v-3.3c0-0.5-0.1-0.8-0.6-0.9h-0.4c-0.1,0-0.2,0-0.2-0.1s0.1-0.1,0.2-0.1h5.3
		c0.3,0,0.6,0,0.7-0.1c0.1-0.1,0.1-0.1,0.2-0.1s0.1,0.1,0.1,0.1c0,0.1-0.1,0.3-0.1,0.7c0,0.2,0,0.5-0.1,0.9c0,0.2-0.1,0.3-0.1,0.3
		c-0.1,0-0.1-0.1-0.1-0.2c0-0.2,0-0.4-0.1-0.5c-0.1-0.3-0.4-0.5-1.1-0.6h-2.2c-0.1,0-0.1,0-0.1,0.1v4.3c0,0.1,0,0.2,0.1,0.2h2.5
		c0.4,0,0.6-0.1,0.8-0.3c0.1-0.1,0.1-0.2,0.2-0.2c0,0,0.1,0,0.1,0.1s-0.1,0.3-0.1,0.8c0,0.5,0,0.8-0.1,1c0,0.2,0,0.2-0.1,0.2
		s-0.1-0.1-0.1-0.2c0-0.1,0-0.3-0.1-0.4c-0.1-0.2-0.2-0.4-0.8-0.5c-0.4,0-2-0.1-2.2-0.1c-0.1,0-0.1,0-0.1,0.1v4.1
		c0,0.6,0.1,0.9,0.5,1.1c0.3,0.1,0.7,0.1,1.3,0.1s0.9,0,1.4-0.1c0.5-0.2,0.6-0.5,0.8-1.1c0-0.2,0.1-0.2,0.1-0.2
		c0.1,0,0.1,0.1,0.1,0.2c0,0.1-0.1,1.1-0.2,1.6c-0.1,0.4-0.2,0.4-0.8,0.4h-4.3c-0.4,0-0.7,0.1-1.1,0c-0.2,0-0.2,0-0.2-0.1
		c0,0,0.1-0.1,0.2-0.1h0.3c0.3-0.1,0.5-0.3,0.5-1.5L311.1,286.3L311.1,286.3z M322.2,286.3v-3.3c0-0.5-0.1-0.8-0.6-0.9h-0.5
		c-0.1,0-0.1,0-0.1-0.1s0.1-0.1,0.2-0.1h3.6c0.9,0,2.1,0.1,2.8,0.7c0.4,0.3,1,1,1,2.1c0,1.1-0.5,2.3-1.9,3.6c1.3,1.7,2.3,3,3.2,4
		c0.8,0.9,1.6,1,1.9,1.1h0.6c0.1,0,0.1,0,0.1,0.1c0,0.1-0.1,0.1-0.4,0.1h-1.1c-0.8,0-1.3-0.1-1.7-0.3c-0.6-0.3-1.3-1.1-2.1-2.3
		c-0.6-0.8-1.4-1.9-1.7-2.3c-0.1-0.1-0.1-0.1-0.2-0.1h-1.9c-0.1,0-0.1,0-0.1,0.1v0.4c0,1.5,0,2.7,0.1,3.4c0,0.4,0.1,0.8,0.6,0.8
		c0.2,0,0.5,0.1,0.7,0.1c0.1,0,0.1,0,0.1,0.1c0,0.1-0.1,0.1-0.2,0.1H323h-1.5c-0.2,0-0.2,0-0.2-0.1c0,0,0-0.1,0.1-0.1
		c0.1,0,0.3,0,0.5-0.1c0.3-0.1,0.4-0.4,0.4-0.8c0.1-0.6,0.1-1.9,0.1-3.4v-2.8H322.2z M323.5,287.6c0,0.1,0,0.1,0.1,0.2
		c0.2,0.1,0.9,0.2,1.7,0.2c0.4,0,0.8,0,1.1-0.3c0.5-0.4,0.9-1.3,0.9-2.4c0-2-1-3.1-2.7-3.1c-0.5,0-0.9,0-1,0.1
		c-0.1,0-0.1,0.1-0.1,0.2C323.5,282.5,323.5,287.6,323.5,287.6z M343.3,292c-1.6-1.4-1.9-3.1-1.9-4.6c0-1,0.3-2.9,1.8-4.3
		c0.9-0.9,2.4-1.7,4.8-1.7c0.6,0,1.5,0,2.3,0.2c0.6,0.1,1,0.2,1.7,0.2c0.1,0,0.1,0.1,0.1,0.2s0,0.3-0.1,0.8v1.6c0,0.2,0,0.3-0.1,0.3
		s-0.1-0.1-0.1-0.3c0-0.6-0.2-1.3-0.6-1.6c-0.5-0.4-1.8-0.9-3.1-0.9c-2.1,0-3,0.6-3.5,1.1c-1.1,1.1-1.5,2.5-1.5,4.1
		c0,3,2.3,5.7,5.6,5.7c1.1,0,2.1-0.1,2.7-0.8c0.3-0.3,0.5-1,0.6-1.4c0-0.2,0.1-0.2,0.2-0.2c0.1,0,0.1,0.1,0.1,0.2
		c0,0.1-0.2,1.5-0.3,2c-0.1,0.3-0.1,0.3-0.4,0.4c-0.6,0.2-1.8,0.3-2.8,0.3C346.1,293.8,344.5,293.1,343.3,292L343.3,292z
		 M357.5,286.3v-3.3c0-0.5-0.2-0.8-0.5-0.8c-0.2,0-0.4-0.1-0.5-0.1s-0.1,0-0.1-0.1s0.1-0.1,0.2-0.1h3.1c0.2,0,0.2,0,0.2,0.1
		s-0.1,0.1-0.1,0.1h-0.4c-0.4,0.1-0.5,0.3-0.6,0.9v6c0,1.5,0,2.7,0.1,3.4c0,0.4,0.1,0.8,0.6,0.8c0.2,0,0.5,0.1,0.6,0.1
		c0.1,0,0.2,0,0.2,0.1c0,0.1-0.1,0.1-0.2,0.1h-3.5c-0.2,0-0.2,0-0.2-0.1c0,0,0-0.1,0.2-0.1h0.4c0.3-0.1,0.4-0.4,0.5-0.8
		c0.1-0.6,0.1-1.9,0.1-3.4v-2.8H357.5z M365.9,288.9v-6.7c0-0.6,0-0.8,0.2-0.8c0.1,0,0.4,0.3,0.5,0.5c0.2,0.3,2.6,2.8,5,5.3
		c1.6,1.7,3.2,3.5,3.8,4.1l-0.2-7.9c0-1-0.1-1.4-0.6-1.5c-0.3-0.1-0.5-0.1-0.6-0.1c-0.2,0-0.2,0-0.2-0.1c0-0.1,0.1-0.1,0.3-0.1h3
		c0.2,0,0.3,0,0.3,0.1c0,0.1-0.1,0.1-0.2,0.1s-0.2,0-0.4,0.1c-0.4,0.1-0.5,0.3-0.5,1.4v9.2c0,1,0,1.1-0.1,1.1c-0.1,0-0.3-0.2-1.1-1
		c-0.2-0.1-2.4-2.5-4.1-4.3c-1.8-2-3.5-4-4.1-4.5l0.2,7.5c0,1.3,0.2,1.7,0.6,1.8c0.3,0.1,0.6,0.1,0.8,0.1c0.1,0,0.1,0,0.1,0.1
		c0,0.1-0.1,0.1-0.3,0.1h-3.1c-0.1,0-0.2,0-0.2-0.1c0-0.1,0-0.1,0.1-0.1c0.1,0,0.4,0,0.6-0.1c0.4-0.1,0.5-0.5,0.5-2v-2.2H365.9z
		 M383.3,292c-1.6-1.4-1.9-3.1-1.9-4.6c0-1,0.3-2.9,1.8-4.3c0.9-0.9,2.4-1.7,4.8-1.7c0.6,0,1.5,0,2.3,0.2c0.6,0.1,1,0.2,1.7,0.2
		c0.1,0,0.1,0.1,0.1,0.2s0,0.3-0.1,0.8v1.6c0,0.2,0,0.3-0.1,0.3c-0.1,0-0.1-0.1-0.1-0.3c0-0.6-0.2-1.3-0.6-1.6
		c-0.5-0.4-1.8-0.9-3.1-0.9c-2.1,0-3,0.6-3.5,1.1c-1.1,1.1-1.5,2.5-1.5,4.1c0,3,2.3,5.7,5.6,5.7c1.1,0,2.1-0.1,2.7-0.8
		c0.3-0.3,0.5-1,0.6-1.4c0-0.2,0.1-0.2,0.2-0.2s0.1,0.1,0.1,0.2c0,0.1-0.2,1.5-0.3,2c-0.1,0.3-0.1,0.3-0.4,0.4
		c-0.6,0.2-1.8,0.3-2.8,0.3C386.1,293.8,384.6,293.1,383.3,292L383.3,292z M397.6,286.3v-3.3c0-0.5-0.2-0.8-0.5-0.8
		c-0.2,0-0.4-0.1-0.5-0.1s-0.1,0-0.1-0.1s0.1-0.1,0.2-0.1h3.1c0.2,0,0.2,0,0.2,0.1s-0.1,0.1-0.1,0.1h-0.4c-0.4,0.1-0.5,0.3-0.6,0.9
		v6c0,1.5,0,2.7,0.1,3.4c0,0.4,0.1,0.8,0.6,0.8c0.2,0,0.5,0.1,0.6,0.1s0.2,0,0.2,0.1c0,0.1-0.1,0.1-0.2,0.1h-3.5
		c-0.2,0-0.2,0-0.2-0.1c0,0,0-0.1,0.2-0.1h0.4c0.3-0.1,0.4-0.4,0.5-0.8c0.1-0.6,0.1-1.9,0.1-3.4v-2.8H397.6z M405.9,288.9v-6.7
		c0-0.6,0-0.8,0.2-0.8c0.1,0,0.4,0.3,0.5,0.5c0.2,0.3,2.6,2.8,5,5.3c1.6,1.7,3.2,3.5,3.8,4.1l-0.2-7.9c0-1-0.1-1.4-0.6-1.5
		c-0.3-0.1-0.5-0.1-0.6-0.1c-0.2,0-0.2,0-0.2-0.1c0-0.1,0.1-0.1,0.3-0.1h3c0.2,0,0.3,0,0.3,0.1c0,0.1-0.1,0.1-0.2,0.1
		c-0.1,0-0.2,0-0.4,0.1c-0.4,0.1-0.5,0.3-0.5,1.4v9.2c0,1,0,1.1-0.1,1.1c-0.1,0-0.3-0.2-1.1-1c-0.2-0.1-2.4-2.5-4.1-4.3
		c-1.8-2-3.5-4-4.1-4.5l0.2,7.5c0,1.3,0.2,1.7,0.6,1.8c0.3,0.1,0.6,0.1,0.8,0.1c0.1,0,0.1,0,0.1,0.1c0,0.1-0.1,0.1-0.3,0.1h-3.1
		c-0.1,0-0.2,0-0.2-0.1c0-0.1,0-0.1,0.1-0.1c0.1,0,0.4,0,0.6-0.1c0.4-0.1,0.5-0.5,0.5-2v-2.2H405.9z M422.8,288.9v-6.7
		c0-0.6,0-0.8,0.2-0.8c0.1,0,0.4,0.3,0.5,0.5c0.2,0.3,2.6,2.8,5,5.3c1.6,1.7,3.2,3.5,3.8,4.1l-0.2-7.9c0-1-0.1-1.4-0.6-1.5
		c-0.3-0.1-0.5-0.1-0.6-0.1c-0.2,0-0.2,0-0.2-0.1c0-0.1,0.1-0.1,0.3-0.1h3c0.2,0,0.3,0,0.3,0.1c0,0.1-0.1,0.1-0.2,0.1
		s-0.2,0-0.4,0.1c-0.4,0.1-0.5,0.3-0.5,1.4v9.2c0,1,0,1.1-0.1,1.1c-0.1,0-0.3-0.2-1.1-1c-0.2-0.1-2.4-2.5-4.1-4.3
		c-1.8-2-3.5-4-4.1-4.5l0.2,7.5c0,1.3,0.2,1.7,0.6,1.8c0.3,0.1,0.6,0.1,0.8,0.1c0.1,0,0.1,0,0.1,0.1c0,0.1-0.1,0.1-0.3,0.1h-3.1
		c-0.1,0-0.2,0-0.2-0.1c0-0.1,0-0.1,0.1-0.1s0.4,0,0.6-0.1c0.4-0.1,0.5-0.5,0.5-2v-2.2H422.8z M440.8,288.9c-0.1,0-0.1,0-0.1,0.1
		l-0.9,2.8c-0.1,0.4-0.2,0.7-0.2,1c0,0.3,0.3,0.4,0.5,0.4h0.1c0.2,0,0.2,0,0.2,0.1s-0.1,0.1-0.3,0.1h-2.9c-0.2,0-0.3,0-0.3-0.1
		s0.1-0.1,0.2-0.1h0.4c0.7-0.1,1-0.7,1.4-1.5l3.5-9.7c0.2-0.5,0.2-0.6,0.3-0.6c0.1,0,0.1,0.1,0.3,0.5c0.2,0.6,2.7,7.1,3.6,9.4
		c0.5,1.4,1,1.7,1.4,1.8c0.2,0.1,0.5,0.1,0.6,0.1c0.1,0,0.2,0,0.2,0.1s-0.1,0.1-0.3,0.1H446c-0.3,0-0.5,0-0.5-0.1s0-0.1,0.1-0.1
		c0.1,0,0.2-0.2,0.1-0.4l-1.5-3.9c0-0.1-0.1-0.1-0.1-0.1H440.8L440.8,288.9z M444,288.3c0.1,0,0.1,0,0.1-0.1l-1.5-4.2
		c-0.1-0.2-0.1-0.2-0.2,0l-1.4,4.2v0.1H444z M455.3,289c0,1.5,0,2.7,0.1,3.4c0,0.4,0.1,0.8,0.6,0.8c0.2,0,0.5,0.1,0.7,0.1
		c0.1,0,0.1,0,0.1,0.1c0,0.1-0.1,0.1-0.2,0.1h-3.4c-0.2,0-0.2,0-0.2-0.1c0,0,0-0.1,0.1-0.1c0.1,0,0.3,0,0.5-0.1
		c0.3-0.1,0.4-0.4,0.4-0.8c0.1-0.6,0.1-1.9,0.1-3.4v-6.6h-2.3c-0.9,0-1.4,0.1-1.6,0.5c-0.2,0.3-0.2,0.4-0.3,0.5
		c0,0.1-0.1,0.2-0.1,0.2s-0.1,0-0.1-0.1c0-0.1,0.3-1.5,0.3-1.7c0-0.1,0.1-0.3,0.1-0.3c0.1,0,0.3,0.1,0.7,0.2c0.4,0,1,0.1,1.3,0.1
		h5.8c0.5,0,0.8,0,1.1-0.1c0.2,0,0.4-0.1,0.4-0.1c0.1,0,0.1,0.1,0.1,0.2v1.7c0,0.1,0,0.2-0.1,0.2c-0.1,0-0.1,0-0.1-0.3v-0.2
		c0-0.4-0.4-0.8-1.9-0.8h-2v6.6H455.3z M464.8,286.3v-3.3c0-0.5-0.2-0.8-0.5-0.8c-0.2,0-0.4-0.1-0.5-0.1c-0.1,0-0.1,0-0.1-0.1
		s0.1-0.1,0.2-0.1h3.1c0.2,0,0.2,0,0.2,0.1s-0.1,0.1-0.1,0.1h-0.4c-0.4,0.1-0.5,0.3-0.6,0.9v6c0,1.5,0,2.7,0.1,3.4
		c0,0.4,0.1,0.8,0.6,0.8c0.2,0,0.5,0.1,0.6,0.1c0.1,0,0.2,0,0.2,0.1c0,0.1-0.1,0.1-0.2,0.1h-3.5c-0.2,0-0.2,0-0.2-0.1
		c0,0,0-0.1,0.2-0.1h0.4c0.3-0.1,0.4-0.4,0.5-0.8c0.1-0.6,0.1-1.9,0.1-3.4v-2.8H464.8z M479.9,293.3c-0.2-0.1-0.2-0.2-0.2-0.6
		c0-0.8,0.1-1.5,0.1-1.7s0-0.2,0.1-0.2s0.1,0,0.1,0.2v0.6c0.2,1.1,1.3,1.6,2.3,1.6c1.5,0,2.2-1,2.2-2.1c0-1-0.4-1.7-1.8-2.8
		l-0.7-0.6c-1.7-1.4-2.1-2.3-2.1-3.4c0-1.7,1.3-2.8,3.2-2.8c0.6,0,1,0.1,1.5,0.1c0.3,0.1,0.4,0.1,0.5,0.1s0.1,0,0.1,0.1
		c0,0.1-0.1,0.6-0.1,1.7c0,0.2,0,0.3-0.1,0.3c-0.1,0-0.1-0.1-0.1-0.2c0-0.2-0.1-0.6-0.2-0.8c-0.1-0.2-0.5-0.8-2-0.8
		c-1,0-1.9,0.6-1.9,1.8c0,0.9,0.4,1.5,1.9,2.6l0.4,0.3c1.9,1.5,2.3,2.4,2.3,3.6c0,0.6-0.2,1.9-1.4,2.6c-0.6,0.5-1.6,0.6-2.4,0.6
		C481.3,293.8,480.5,293.7,479.9,293.3z M491.6,286.3v-3.3c0-0.5-0.2-0.8-0.5-0.8c-0.2,0-0.4-0.1-0.5-0.1s-0.1,0-0.1-0.1
		s0.1-0.1,0.2-0.1h3.1c0.2,0,0.2,0,0.2,0.1s-0.1,0.1-0.1,0.1h-0.4c-0.4,0.1-0.5,0.3-0.6,0.9v6c0,1.5,0,2.7,0.1,3.4
		c0,0.4,0.1,0.8,0.6,0.8c0.2,0,0.5,0.1,0.6,0.1s0.2,0,0.2,0.1c0,0.1-0.1,0.1-0.2,0.1h-3.5c-0.2,0-0.2,0-0.2-0.1c0,0,0-0.1,0.2-0.1
		h0.4c0.3-0.1,0.4-0.4,0.5-0.8c0.1-0.6,0.1-1.9,0.1-3.4v-2.8H491.6z M499.9,288.9v-6.7c0-0.6,0-0.8,0.2-0.8c0.1,0,0.4,0.3,0.5,0.5
		c0.2,0.3,2.6,2.8,5,5.3c1.6,1.7,3.2,3.5,3.8,4.1l-0.2-7.9c0-1-0.1-1.4-0.6-1.5c-0.3-0.1-0.5-0.1-0.6-0.1c-0.2,0-0.2,0-0.2-0.1
		c0-0.1,0.1-0.1,0.3-0.1h3c0.2,0,0.3,0,0.3,0.1c0,0.1-0.1,0.1-0.2,0.1c-0.1,0-0.2,0-0.4,0.1c-0.4,0.1-0.5,0.3-0.5,1.4v9.2
		c0,1,0,1.1-0.1,1.1s-0.3-0.2-1.1-1c-0.2-0.1-2.4-2.5-4.1-4.3c-1.8-2-3.5-4-4.1-4.5l0.2,7.5c0,1.3,0.2,1.7,0.6,1.8
		c0.3,0.1,0.6,0.1,0.8,0.1c0.1,0,0.1,0,0.1,0.1c0,0.1-0.1,0.1-0.3,0.1h-3.1c-0.1,0-0.2,0-0.2-0.1c0-0.1,0-0.1,0.1-0.1
		c0.1,0,0.4,0,0.6-0.1c0.4-0.1,0.5-0.5,0.5-2v-2.2H499.9z M517.4,292c-1.6-1.4-1.9-3.1-1.9-4.6c0-1,0.3-2.9,1.8-4.3
		c0.9-0.9,2.4-1.7,4.8-1.7c0.6,0,1.5,0,2.3,0.2c0.6,0.1,1,0.2,1.7,0.2c0.1,0,0.1,0.1,0.1,0.2s0,0.3-0.1,0.8v1.6c0,0.2,0,0.3-0.1,0.3
		s-0.1-0.1-0.1-0.3c0-0.6-0.2-1.3-0.6-1.6c-0.5-0.4-1.8-0.9-3.1-0.9c-2.1,0-3,0.6-3.5,1.1c-1.1,1.1-1.5,2.5-1.5,4.1
		c0,3,2.3,5.7,5.6,5.7c1.1,0,2.1-0.1,2.7-0.8c0.3-0.3,0.5-1,0.6-1.4c0-0.2,0.1-0.2,0.1-0.2c0.1,0,0.1,0.1,0.1,0.2
		c0,0.1-0.2,1.5-0.3,2c-0.1,0.3-0.1,0.3-0.4,0.4c-0.6,0.2-1.8,0.3-2.8,0.3C520.2,293.8,518.7,293.1,517.4,292L517.4,292z
		 M531.6,286.3v-3.3c0-0.5-0.1-0.8-0.6-0.9h-0.4c-0.1,0-0.2,0-0.2-0.1s0.1-0.1,0.2-0.1h5.3c0.3,0,0.6,0,0.7-0.1
		c0.1-0.1,0.1-0.1,0.2-0.1c0.1,0,0.1,0.1,0.1,0.1c0,0.1-0.1,0.3-0.1,0.7c0,0.2,0,0.5-0.1,0.9c0,0.2-0.1,0.3-0.1,0.3
		c-0.1,0-0.1-0.1-0.1-0.2c0-0.2,0-0.4-0.1-0.5c-0.1-0.3-0.4-0.5-1.1-0.6H533c-0.1,0-0.1,0-0.1,0.1v4.3c0,0.1,0,0.2,0.1,0.2h2.5
		c0.4,0,0.6-0.1,0.8-0.3c0.1-0.1,0.1-0.2,0.2-0.2c0,0,0.1,0,0.1,0.1s-0.1,0.3-0.1,0.8c0,0.5,0,0.8-0.1,1c0,0.2,0,0.2-0.1,0.2
		c-0.1,0-0.1-0.1-0.1-0.2c0-0.1,0-0.3-0.1-0.4c-0.1-0.2-0.2-0.4-0.8-0.5c-0.4,0-2-0.1-2.2-0.1c-0.1,0-0.1,0-0.1,0.1v4.1
		c0,0.6,0.1,0.9,0.5,1.1c0.3,0.1,0.7,0.1,1.3,0.1s0.9,0,1.4-0.1c0.5-0.2,0.6-0.5,0.8-1.1c0-0.2,0.1-0.2,0.1-0.2
		c0.1,0,0.1,0.1,0.1,0.2c0,0.1-0.1,1.1-0.2,1.6c-0.1,0.4-0.2,0.4-0.8,0.4h-4.3c-0.4,0-0.7,0.1-1.1,0c-0.2,0-0.2,0-0.2-0.1
		c0,0,0.1-0.1,0.2-0.1h0.3c0.3-0.1,0.5-0.3,0.5-1.5L531.6,286.3L531.6,286.3z M550.1,283.7c0-0.3,0-0.5-0.2-0.5
		c-0.4,0-1.5,0.5-1.6,0.5c0,0-0.1,0-0.1-0.1c0,0,0-0.1,0.1-0.2c1-0.6,1.6-1,2.6-1.7c0.1-0.1,0.3-0.2,0.4-0.2c0.1,0,0.1,0.2,0.1,0.3
		c0,0-0.1,3.4-0.1,7c0,1.6,0,2.9,0.1,3.6c0,0.5,0.1,0.7,0.6,0.8h0.4c0.1,0,0.2,0.1,0.2,0.1c0,0.1-0.1,0.1-0.3,0.1h-3.6
		c-0.2,0-0.3,0-0.3-0.1s0.1-0.1,0.2-0.1h0.6c0.6,0,0.7-0.3,0.7-0.9v-8.6H550.1z M563.7,285.7c0,4.7-3.6,7.1-5.6,8
		c-0.1,0-0.4,0.1-0.4,0c0-0.1,0.1-0.2,0.2-0.2c1.9-1,4.4-3.6,4.4-7.3c0-2.7-1.3-4.2-2.6-4.2s-2.2,1.1-2.2,2.4c0,2.6,1.8,3.1,2.4,3.1
		c0.6,0,0.9-0.2,1.1-0.3c0.1-0.1,0.2-0.1,0.2-0.1c0.1,0,0,0.2,0,0.2c-0.4,0.5-1.3,0.7-1.9,0.7c-2.2,0-3.1-1.7-3.1-3
		c0-2.2,1.6-3.6,3.8-3.6C562.3,281.5,563.7,283.3,563.7,285.7L563.7,285.7z M574.9,290.3c0,1.8-1.5,3.4-3.8,3.4c-2,0-3.5-1.1-3.5-3
		c0-1.8,1.4-2.8,2.7-3.4c-1.3-0.7-2.2-1.6-2.2-3c0-1.3,1-2.8,3.3-2.8c1.7,0,2.8,1,2.8,2.5c0,1.7-1.4,2.4-2.2,2.9
		C573.3,287.4,574.9,288.3,574.9,290.3L574.9,290.3z M568.9,290.5c0,1.4,1,2.6,2.5,2.6s2.4-1.1,2.4-2.5c0-1.7-1.4-2.4-2.8-3.1
		C569.8,288,568.9,289,568.9,290.5L568.9,290.5z M573.4,284.2c0-1.1-0.7-2.2-2-2.2c-1.4,0-2.1,1.1-2.1,2c0,1.4,1,2,2.3,2.6
		C572.3,286.3,573.4,285.7,573.4,284.2L573.4,284.2z M579,289.3c0-3.8,2.9-6.7,6-7.7c0.2-0.1,0.3-0.1,0.4-0.1s0.1,0,0.1,0.1
		c0,0.1-0.2,0.2-0.4,0.3c-2.3,1-4.9,3.3-4.9,7.3c0,2.2,0.9,4,2.6,4c1.3,0,2.2-1,2.2-2.8c0-1.8-1.1-3.2-2.4-3.2
		c-0.5,0-0.9,0.1-1.3,0.3h-0.2c0,0,0-0.1,0.1-0.2c0.3-0.2,0.9-0.6,2-0.6c2,0,3,1.7,3,3.2c0,2.2-1.6,4-3.8,4
		C580.2,293.8,579,291.9,579,289.3L579,289.3z"/>
</g>
<g>
	<path fill="#FFFFFF" d="M98.7,253.2c-1.3,0-2.6,0.3-3.8,0.7c-1.2,0.4-2.3,1.2-3.3,1.9c-1,0.7-1.9,1.6-2.7,2.5
		c-0.9,0.9-1.4,1.7-2,2.6l-3.6,26.8c0.9,0.6,1.9,1.2,3,1.4c1.2,0.3,2.3,0.4,3.5,0.4c1.9,0,3.5-0.3,5.1-1s2.9-1.7,4.2-2.9
		s2.3-2.6,3.3-4.2c0.9-1.6,1.7-3.3,2.3-5.1c0.6-1.7,1.2-3.6,1.4-5.4c0.3-1.9,0.4-3.6,0.4-5.2c0-4-0.7-7.1-2.2-9.1
		C102.9,254.4,101,253.2,98.7,253.2z"/>
	<path fill="#FFFFFF" d="M53.3,195.8c-39.9,0-72.3,32.4-72.3,72.3s32.4,72.3,72.3,72.3s72.3-32.4,72.3-72.3S93.2,195.8,53.3,195.8z
		 M30.8,289.2c-0.4,0.6-1.2,1.2-1.9,1.6c-0.7,0.6-1.6,1-2.5,1.4s-1.9,0.6-2.9,0.6c-1.3,0-2.3-0.4-2.9-1.3c-0.6-0.9-0.7-2.2-0.4-3.8
		c0-0.1,0.1-0.6,0.1-1.2s0.1-1.2,0.1-1.7c-0.7,1-1.7,2-2.7,2.9c-1,1-2.2,1.9-3.3,2.6s-2.5,1.3-3.9,1.9c-1.4,0.4-2.9,0.7-4.3,0.7
		s-2.6-0.1-3.8-0.4c-1.2-0.3-2-0.9-2.9-1.7c-0.9-0.7-1.4-1.9-1.9-3.2s-0.6-2.9-0.6-4.9c0-0.9,0-1.7,0.1-2.9c0.1-1,0.1-2.2,0.3-3.3
		c0.1-1.2,0.3-2.3,0.4-3.5s0.3-2.3,0.4-3.5l2.2-14.5l-3.6-1.7l0.4-2.6l7.7-1.6l1.4,0.7L4,270c-0.1,1.2-0.3,2.2-0.4,3.2
		c-0.1,1-0.3,2-0.4,2.9C3,277.1,3,278,2.8,279s-0.1,1.9-0.1,2.9c0,1.4,0.1,2.6,0.4,3.6c0.3,0.9,0.7,1.6,1.2,2.2
		c0.4,0.6,1.2,0.9,1.9,1s1.6,0.3,2.5,0.3c1.2,0,2.2-0.3,3.5-0.7c1.2-0.4,2.3-1.2,3.5-1.9c1.2-0.7,2.2-1.7,3.2-2.7s1.7-2,2.5-3
		c0.1-1.4,0.4-3.2,0.7-5.2c0.3-2,0.6-4.2,0.9-6.4c0.3-2.2,0.6-4.5,0.9-6.7c0.3-2.2,0.6-4.3,0.7-6.1c0.3-1.9,0.4-3.6,0.6-4.8
		c0.1-1.3,0.3-2.3,0.3-2.3h5.5l-4.8,37c-0.1,1-0.1,1.7,0.1,2.2c0.1,0.4,0.4,0.7,0.9,0.7c0.6,0,1.2-0.1,1.7-0.6c0.7-0.4,1.4-1,2.5-2
		l0.9,1.7C31.5,288.4,31.2,288.7,30.8,289.2z M71.8,289.5c-0.4,0.6-1,1-1.7,1.6s-1.4,1-2.5,1.3c-0.9,0.4-1.9,0.6-2.9,0.6
		c-1.3,0-2.2-0.3-3-1c-0.7-0.6-1-1.7-1-3.3c0-0.9,0.1-1.9,0.3-3c0.1-1.2,0.3-2.3,0.6-3.5c0.1-1.2,0.4-2.5,0.7-3.6s0.4-2.3,0.6-3.3
		c0.1-1.2,0.4-2.3,0.7-3.5c0.3-1.3,0.4-2.6,0.7-3.9c0.1-1.3,0.4-2.6,0.6-3.9c0.1-1.3,0.1-2.5,0.1-3.6c0-1.3-0.1-2.3-0.3-3.2
		c-0.1-0.9-0.6-1.6-1-2c-0.4-0.4-1-0.9-1.6-1c-0.6-0.1-1.4-0.3-2.3-0.3c-1.2,0-2.5,0.3-3.8,0.9s-2.7,1.3-4,2.3
		c-1.3,1-2.6,2.2-3.9,3.5s-2.3,1.4-3.3,2.9L41,289.7h-5.5l7.5-55l-4.3-0.6l0.4-2.2l8.4-1.2l1.6,0.9l-3.8,28.2c1-1.4,2.2-2.7,3.5-4
		s2.6-2.5,4-3.5c1.4-1,2.9-1.7,4.5-2.5c1.6-0.6,3.2-0.9,4.8-0.9c1.3,0,2.5,0.1,3.5,0.6s1.9,1,2.6,1.9s1.3,2,1.6,3.5
		c0.4,1.4,0.6,3.2,0.6,5.2c0,1,0,2-0.1,3c-0.1,1.2-0.3,2.3-0.4,3.5s-0.4,2.3-0.6,3.6c-0.3,1.2-0.4,2.3-0.6,3.3s-0.3,2-0.6,3
		c-0.1,1.2-0.4,2.3-0.6,3.3c-0.1,1.2-0.3,2.3-0.6,3.3c-0.1,1.2-0.3,2.2-0.3,3c0,1.9,0.3,2.7,1,2.7c0.6,0,1.2-0.1,1.7-0.6
		s1.3-1,2.3-1.7l1,1.6C72.7,288.7,72.3,289.1,71.8,289.5z M109.6,277.5c-0.9,2-2,4-3.3,5.9s-2.9,3.5-4.6,4.9s-3.6,2.6-5.8,3.3
		c-2.2,0.7-4.5,1.3-6.9,1.3c-1,0-2-0.1-3-0.3s-2.2,0.9-3,0.6l-2.7,20.8h-5.4l7.5-58.4l-4-2.2l0.4-2.7l8-1.7l1.4,0.7l-0.7,6.2
		c0.6-0.9,1.3-1.7,2.2-2.5c0.9-0.9,1.7-1.6,2.9-2.3c1-0.7,2.2-1.2,3.3-1.6s2.5-0.6,3.9-0.6c2.2,0,4,0.4,5.6,1.2
		c1.6,0.9,2.9,1.9,3.9,3.3s1.9,3.2,2.3,5.1c0.6,2,0.7,4,0.7,6.5c0,1.9-0.3,3.9-0.7,6.1C111.2,273.3,110.4,275.5,109.6,277.5z"/>
</g>
</svg>
